# xmcd
#
# Track frame offsets:
#	150
#	20420
#	35025
#	56392
#	76682
#	89182
#	110327
#	127442
#	141765
#	155245
#	174925
#	194670
#	217445
#	234377
#
# Disc length: 3328 seconds
#
# Revision: 1
# Processed by: cddbd v1.5.2PL0 Copyright (c) Steve Scherf et al.
# Submitted via: audiograbber 1.83.01
#
DISCID=d20cfe0e
DTITLE=Four For The Blues - Four For The Blues
DYEAR=2001
DGENRE=Blues
TTITLE0=Moondance
TTITLE1=Love Me Or Leave Me
TTITLE2=Georgia On My Mind
TTITLE3=Killing Me Softly
TTITLE4=Bye Bye Blackbird
TTITLE5=This Masquerade
TTITLE6=Dream A Little Dream
TTITLE7=A Natural Woman
TTITLE8=How High The Moon
TTITLE9=Funny But I Still Love You
TTITLE10=Stolen Moments
TTITLE11=As Time Goes By
TTITLE12=Fly Me To The Moon
TTITLE13=Straighten Up And Fly Right
EXTD=Feat. Janet Dawkins\nGuest Vocalists Sharon Harris, Henrietta Konnob
EXTT0=
EXTT1=
EXTT2=
EXTT3=
EXTT4=
EXTT5=
EXTT6=
EXTT7=
EXTT8=
EXTT9=
EXTT10=
EXTT11=
EXTT12=
EXTT13=
PLAYORDER=
